<svg version="1.1" xmlns="http://www.w3.org/2000/svg" xmlns:xlink="http://www.w3.org/1999/xlink" style="" xml:space="preserve" width="600" height="200"><rect id="backgroundrect" width="100%" height="100%" x="0" y="0" fill="none" stroke="none"/>
<style type="text/css">
	.st0{fill:#E50012;}
	.st1{fill:#FFFFFF;}
</style>


<g class="currentLayer" style=""><title>Layer 1</title><polygon class="st0" points="0.0015621185302734375,0 0.0015621185302734375,199.90000915527344 599.9015502929688,199.90000915527344 599.9015502929688,0 " id="svg_1"/><g id="svg_2" class="">
	<path class="st1" d="M562.3015747070312,73.59999084472656 c0,-5.199999809265137 3.9000000953674316,-9.100000381469727 8.899999618530273,-9.100000381469727 c4.900000095367432,0 8.800000190734863,3.9000000953674316 8.800000190734863,9.100000381469727 c0,5.199999809265137 -3.9000000953674316,9.100000381469727 -8.800000190734863,9.100000381469727 C566.2015380859375,82.69999694824219 562.3015747070312,78.90000915527344 562.3015747070312,73.59999084472656 M571.2015380859375,84.49998474121094 c5.900000095367432,0 11,-4.599999904632568 11,-10.899999618530273 c0,-6.300000190734863 -5.099999904632568,-10.899999618530273 -11,-10.899999618530273 c-6,0 -11.100000381469727,4.599999904632568 -11.100000381469727,10.899999618530273 C560.1015625,79.90000915527344 565.2015380859375,84.49998474121094 571.2015380859375,84.49998474121094 M568.9015502929688,74.49998474121094 h2.200000047683716 l3.299999952316284,5.400000095367432 h2.0999999046325684 l-3.5999999046325684,-5.5 c1.899999976158142,-0.20000000298023224 3.299999952316284,-1.2000000476837158 3.299999952316284,-3.5 c0,-2.5 -1.5,-3.5999999046325684 -4.400000095367432,-3.5999999046325684 h-4.800000190734863 v12.600000381469727 h1.899999976158142 V74.49998474121094 zM568.9015502929688,72.90000915527344 v-3.9000000953674316 h2.5999999046325684 c1.2999999523162842,0 2.700000047683716,0.30000001192092896 2.700000047683716,1.899999976158142 c0,1.899999976158142 -1.399999976158142,2.0999999046325684 -3.0999999046325684,2.0999999046325684 H568.9015502929688 z" id="svg_3"/>
	<path class="st1" d="M558.8015747070312,177.59999084472656 c0,0 3.0999999046325684,-9.300000190734863 3.5,-10.199999809265137 c7.400000095367432,-19.600000381469727 12,-34 19.799999237060547,-53.29999923706055 c-20.399999618530273,0 -63,0 -63.20000076293945,0 c-0.20000000298023224,0 -6.300000190734863,0.6000000238418579 -12.199999809265137,4.5 c-2,1.2999999523162842 -5.900000095367432,7.5 -5.900000095367432,7.5 l-18.799999237060547,51.400001525878906 c0,0 -32,0.20000000298023224 -32,0.10000000149011612 c0,-0.5 16.799999237060547,-43.29999923706055 16.799999237060547,-43.29999923706055 l20.100000381469727,0 l7.599999904632568,-19.600000381469727 h-20.100000381469727 l11,-30.299999237060547 h-26.799999237060547 c0,0 -11.600000381469727,30.299999237060547 -11.5,30.299999237060547 c0.10000000149011612,0 -15.699999809265137,0 -15.699999809265137,0 l-8.399999618530273,19.5 l16.700000762939453,0 L422.7015686035156,177.6999969482422 c0,0 -30,0 -32.70000076293945,0 c-0.5,0 16.700000762939453,-43 24.600000381469727,-62.900001525878906 h-27.399999618530273 C379.30157470703125,135.09999084472656 363.6015625,177.6999969482422 363.6015625,177.6999969482422 h-26.5 l-5.900000095367432,-26 c0,0 41.29999923706055,-36.900001525878906 41.099998474121094,-36.900001525878906 h-31.5 l-33,29 l22.899999618530273,-59.400001525878906 h-25.100000381469727 L269.90155029296875,177.6999969482422 l-23.899999618530273,0 c0,0 3.0999999046325684,-9.300000190734863 3.5,-10.199999809265137 c7.400000095367432,-19.600000381469727 12,-34 19.799999237060547,-53.29999923706055 c-20.399999618530273,0 -63,0 -63.20000076293945,0 c-0.20000000298023224,0 -6.300000190734863,0.6000000238418579 -12.199999809265137,4.5 c-2,1.2999999523162842 -5.900000095367432,7.5 -5.900000095367432,7.5 L169.1015625,177.6999969482422 h-23.899999618530273 l24.200000762939453,-62.900001525878906 h-45.5 c0,0 6.599999904632568,-15.600000381469727 6.400000095367432,-15.600000381469727 H82.6015625 l5.199999809265137,-14.699999809265137 l-87.80000305175781,0 v23.799999237060547 h52.20000076293945 l-34.70000076293945,91.69999694824219 l25.899999618530273,0 l30.299999237060547,-78.69999694824219 h21.600000381469727 l-30.399999618530273,78.80000305175781 l25.799999237060547,-0.10000000149011612 l24.5,-63.5 h21.799999237060547 l-24.600000381469727,63.5 l40.70000076293945,0.10000000149011612 c0,0 9,-10.699999809265137 13.699999809265137,-15.300000190734863 c1.7999999523162842,9.399999618530273 6.800000190734863,13.699999809265137 12.399999618530273,15.199999809265137 c0.20000000298023224,0 18.600000381469727,0 18.600000381469727,0 s11.199999809265137,-11.300000190734863 16.200000762939453,-15.199999809265137 c3.0999999046325684,4.699999809265137 0.5,5.900000095367432 7.900000095367432,11.699999809265137 c1.7999999523162842,1.399999976158142 5.699999809265137,2.799999952316284 8,3.5999999046325684 c0.30000001192092896,0.10000000149011612 20.299999237060547,0 20.299999237060547,0 l16.600000381469727,-15.600000381469727 l-5.599999904632568,15.600000381469727 c0,0 25.5,0 25.299999237060547,0 c-0.20000000298023224,0 18.600000381469727,-47.5 18.600000381469727,-47.5 l0.800000011920929,0.20000000298023224 l10.5,47.29999923706055 h27.600000381469727 c0,0 11,-9.800000190734863 16.700000762939453,-15.199999809265137 c0.20000000298023224,8.100000381469727 10.5,13.800000190734863 14.399999618530273,15.199999809265137 c0.30000001192092896,0.10000000149011612 29.899999618530273,0 29.899999618530273,0 s9.5,-10 15.199999809265137,-15.199999809265137 c-2,11.199999809265137 7.599999904632568,14.399999618530273 13.199999809265137,15.199999809265137 c0.30000001192092896,0 29.600000381469727,0 29.600000381469727,0 l16.5,-15.300000190734863 c1.7999999523162842,9.600000381469727 7,13.899999618530273 12.699999809265137,15.300000190734863 c0.20000000298023224,0.10000000149011612 18.200000762939453,0 18.200000762939453,0 s11.300000190734863,-11.399999618530273 16.399999618530273,-15.300000190734863 c3.0999999046325684,4.699999809265137 0.5,6 7.900000095367432,11.699999809265137 c1.899999976158142,1.5 5.900000095367432,3.0999999046325684 8.300000190734863,3.5999999046325684 c0.30000001192092896,0.10000000149011612 57.099998474121094,0 57.099998474121094,0 v-22.299999237060547 L558.8015747070312,177.59999084472656 zM218.00155639648438,177.6999969482422 l-21.700000762939453,0 l16.299999237060547,-41.20000076293945 l21.700000762939453,0 L218.00155639648438,177.6999969482422 zM530.6015625,177.49998474121094 l-21.700000762939453,0 l16.299999237060547,-41.20000076293945 l21.700000762939453,0 L530.6015625,177.49998474121094 z" id="svg_4"/>
	<polygon class="st1" points="418.1015625,106.19999694824219 390.7015686035156,106.19999694824219 398.7015686035156,84.59999084472656 426.0015563964844,84.59999084472656 " id="svg_5"/>
</g></g></svg>